<?xml version="1.0" encoding="utf-8"?>
<!-- Generator: Adobe Illustrator 25.0.0, SVG Export Plug-In . SVG Version: 6.00 Build 0)  -->
<svg version="1.1" id="Layer_1" xmlns="http://www.w3.org/2000/svg" xmlns:xlink="http://www.w3.org/1999/xlink" x="0px" y="0px"
	 viewBox="0 0 24 24" style="enable-background:new 0 0 24 24;" xml:space="preserve">
<style type="text/css">
	.st0{fill:#EC1F2E;}
</style>
<path id="Vector_Smart_Object1" transform="translate(-464.375 -430.737)" class="st0" d="M476.4,443.4c-3.5,0-6.3-2.8-6.4-6.2
	c0-3.5,2.8-6.3,6.2-6.4c3.5,0,6.3,2.8,6.4,6.2c0,0,0,0,0,0.1C482.6,440.5,479.8,443.3,476.4,443.4z M476.4,433.3
	c-2.1,0-3.8,1.7-3.8,3.7c0,2.1,1.7,3.8,3.7,3.8c2.1,0,3.8-1.7,3.8-3.7c0,0,0,0,0,0C480.1,435,478.5,433.3,476.4,433.3z M486.4,454.7
	h-20v-2.5c0-4.5,4.1-7.6,10-7.6s10,3.1,10,7.6V454.7z M468.9,452.2h15c0-3-3.1-5.1-7.5-5.1S468.9,449.2,468.9,452.2z"/>
</svg>
