<?xml version="1.0" encoding="utf-8"?>
<!-- Generator: Adobe Illustrator 25.0.0, SVG Export Plug-In . SVG Version: 6.00 Build 0)  -->
<svg version="1.1" id="Layer_1" xmlns="http://www.w3.org/2000/svg" xmlns:xlink="http://www.w3.org/1999/xlink" x="0px" y="0px"
	 viewBox="0 0 48 48" style="enable-background:new 0 0 48 48;" xml:space="preserve">
<style type="text/css">
	.st0{fill:#010101;}
</style>
<path class="st0" d="M18,42c0,1.1,0.9,2,2,2h8c1.1,0,2-0.9,2-2v-2H18V42z M24,4c-7.7,0-14,6.3-14,14c0,4.8,2.4,9,6,11.5V34
	c0,1.1,0.9,2,2,2h12c1.1,0,2-0.9,2-2v-4.5c3.6-2.5,6-6.7,6-11.5C38,10.3,31.7,4,24,4z M29.7,26.2L28,27.4V32h-8v-4.6l-1.7-1.2
	C15.6,24.3,14,21.3,14,18c0-5.5,4.5-10,10-10s10,4.5,10,10C34,21.3,32.4,24.3,29.7,26.2z"/>
</svg>
