<?xml version="1.0" encoding="utf-8"?>
<!-- Generator: Adobe Illustrator 25.0.0, SVG Export Plug-In . SVG Version: 6.00 Build 0)  -->
<svg version="1.1" id="Layer_1" xmlns="http://www.w3.org/2000/svg" xmlns:xlink="http://www.w3.org/1999/xlink" x="0px" y="0px"
	 viewBox="0 0 20 20" style="enable-background:new 0 0 20 20;" xml:space="preserve">
<style type="text/css">
	.st0{fill:#272727;}
</style>
<path id="Vector_Smart_Object" transform="translate(-664.257 -202.76)" class="st0" d="M664.3,216.1v-6.6c0-0.1,0-0.1,0-0.2
	c0-0.8,0.1-1.5,0.2-2.3c0.4-1.6,1.5-3,3-3.6c0.9-0.3,1.8-0.5,2.8-0.5c0.2,0,0.4,0,0.6,0h6.6c0.1,0,0.1,0,0.2,0
	c0.8,0,1.5,0.1,2.3,0.2c1.6,0.4,3,1.5,3.6,3c0.3,0.9,0.5,1.8,0.5,2.8c0,0.2,0,0.4,0,0.6v6.6c0,0.1,0,0.1,0,0.2
	c0,0.8-0.1,1.5-0.2,2.3c-0.4,1.6-1.5,3-3,3.6c-0.9,0.3-1.8,0.5-2.8,0.5c-0.2,0-0.4,0-0.6,0H671c-0.1,0-0.1,0-0.2,0
	c-0.8,0-1.5-0.1-2.3-0.2c-1.6-0.4-3-1.5-3.6-3c-0.3-0.9-0.5-1.8-0.5-2.8C664.3,216.5,664.3,216.3,664.3,216.1z M682.5,212.8
	L682.5,212.8c0-0.8,0-1.7,0-2.5c0-0.8,0-1.6-0.1-2.4c-0.1-0.7-0.4-1.4-0.8-2c-0.7-0.8-1.6-1.2-2.7-1.2c-1.2-0.1-2.3-0.1-3.5-0.1
	s-2.3,0-3.5,0c-0.8,0-1.6,0-2.4,0.1c-0.7,0.1-1.4,0.4-2,0.8c-0.8,0.7-1.2,1.6-1.2,2.7c-0.1,1.2-0.1,2.4-0.1,3.5s0,2.3,0,3.5
	c0,0.8,0,1.6,0.1,2.4c0.1,0.7,0.4,1.4,0.8,2c0.7,0.8,1.6,1.2,2.7,1.2c1.2,0.1,2.3,0.1,3.5,0.1s2.3,0,3.5,0c0.9,0,1.7-0.1,2.6-0.2
	c1.4-0.1,2.5-1.2,2.8-2.5c0.1-0.5,0.2-1,0.2-1.4C682.4,215.5,682.4,214.1,682.5,212.8z M679.4,212.8c0,2.8-2.3,5.1-5.1,5.1
	c-2.8,0-5.1-2.3-5.1-5.1c0-2.8,2.3-5.1,5.1-5.1c0,0,0,0,0,0C677.1,207.6,679.4,209.9,679.4,212.8z M674.3,216.1
	c1.8,0,3.3-1.5,3.3-3.3c0-1.8-1.5-3.3-3.3-3.3c-1.8,0-3.3,1.5-3.3,3.3C670.9,214.6,672.4,216.1,674.3,216.1L674.3,216.1z
	 M679.6,206.2c0.7,0,1.2,0.5,1.2,1.2s-0.5,1.2-1.2,1.2c-0.7,0-1.2-0.5-1.2-1.2c0,0,0,0,0,0C678.4,206.8,678.9,206.2,679.6,206.2
	L679.6,206.2z"/>
</svg>
