<?xml version="1.0" encoding="utf-8"?>
<!-- Generator: Adobe Illustrator 25.0.0, SVG Export Plug-In . SVG Version: 6.00 Build 0)  -->
<svg version="1.1" id="Layer_1" xmlns="http://www.w3.org/2000/svg" xmlns:xlink="http://www.w3.org/1999/xlink" x="0px" y="0px"
	 viewBox="0 0 23 19" style="enable-background:new 0 0 23 19;" xml:space="preserve">
<path id="menu" transform="translate(-5.688 -7.313)" d="M28.2,8.3h-22c-0.3,0-0.5-0.2-0.5-0.5c0-0.3,0.2-0.5,0.5-0.5h22
	c0.3,0,0.5,0.2,0.5,0.5C28.7,8.1,28.5,8.3,28.2,8.3z M28.7,16.8c0-0.3-0.2-0.5-0.5-0.5h-22c-0.3,0-0.5,0.2-0.5,0.5s0.2,0.5,0.5,0.5
	h22C28.5,17.3,28.7,17.1,28.7,16.8z M28.7,25.8c0-0.3-0.2-0.5-0.5-0.5h-22c-0.3,0-0.5,0.2-0.5,0.5s0.2,0.5,0.5,0.5h22
	C28.5,26.3,28.7,26.1,28.7,25.8z"/>
</svg>
