<?xml version="1.0" encoding="utf-8"?>
<!-- Generator: Adobe Illustrator 25.0.0, SVG Export Plug-In . SVG Version: 6.00 Build 0)  -->
<svg version="1.1" id="Layer_1" xmlns="http://www.w3.org/2000/svg" xmlns:xlink="http://www.w3.org/1999/xlink" x="0px" y="0px"
	 viewBox="0 0 32 32" style="enable-background:new 0 0 32 32;" xml:space="preserve">
<style type="text/css">
	.st0{fill:#101820;}
</style>
<path id="Layer_41" class="st0" d="M23,31H9c-1.7,0-3-1.3-3-3V4c0-1.7,1.3-3,3-3h14c1.7,0,3,1.3,3,3v24C26,29.7,24.7,31,23,31z M9,3
	C8.4,3,8,3.4,8,4v24c0,0.6,0.4,1,1,1h14c0.6,0,1-0.4,1-1V4c0-0.6-0.4-1-1-1H9z M25,7H7C6.4,7,6,6.6,6,6s0.4-1,1-1h18
	c0.6,0,1,0.4,1,1S25.6,7,25,7z M25,25H7c-0.6,0-1-0.4-1-1s0.4-1,1-1h18c0.6,0,1,0.4,1,1S25.6,25,25,25z M15,26h2v2h-2V26z"/>
</svg>
