<?xml version="1.0" encoding="utf-8"?>
<!-- Generator: Adobe Illustrator 25.0.0, SVG Export Plug-In . SVG Version: 6.00 Build 0)  -->
<svg version="1.1" id="Layer_1" xmlns="http://www.w3.org/2000/svg" xmlns:xlink="http://www.w3.org/1999/xlink" x="0px" y="0px"
	 viewBox="0 0 20 20" style="enable-background:new 0 0 20 20;" xml:space="preserve">
<style type="text/css">
	.st0{fill:#272727;}
</style>
<path class="st0" d="M10,0C4.5,0,0,4.5,0,10c0,4,2.3,7.6,6,9.2c0-0.8,0-1.5,0.2-2.3l1.3-5.4c-0.2-0.5-0.3-1-0.3-1.6
	c0-1.5,0.9-2.6,1.9-2.6c0.7,0,1.3,0.6,1.4,1.3c0,0.1,0,0.1,0,0.2c-0.2,1.2-0.5,2.4-0.9,3.5c-0.2,0.8,0.3,1.7,1.1,1.9
	c0.2,0,0.3,0.1,0.5,0c1.9,0,3.2-2.4,3.2-5.3c0-2.2-1.5-3.8-4.2-3.8C7.5,5,5.3,7,5.2,9.6c0,0.1,0,0.2,0,0.2c0,0.7,0.2,1.4,0.7,2
	C6,11.9,6.1,12.2,6,12.4c0,0.2-0.2,0.6-0.2,0.8c0,0.2-0.2,0.3-0.4,0.3c0,0-0.1,0-0.1,0c-1.4-0.6-2-2.1-2-3.8c0-2.8,2.4-6.2,7.1-6.2
	c3.8,0,6.3,2.8,6.3,5.7c0,3.9-2.2,6.9-5.4,6.9c-1,0-1.9-0.4-2.4-1.2c0,0-0.6,2.3-0.7,2.7c-0.2,0.8-0.6,1.5-1,2.1
	c5.3,1.6,10.9-1.5,12.4-6.8C21.2,7.5,18.1,2,12.8,0.4C11.9,0.1,11,0,10,0"/>
</svg>
