<?xml version="1.0" encoding="utf-8"?>
<!-- Generator: Adobe Illustrator 25.0.0, SVG Export Plug-In . SVG Version: 6.00 Build 0)  -->
<svg version="1.1" id="Layer_1" xmlns="http://www.w3.org/2000/svg" xmlns:xlink="http://www.w3.org/1999/xlink" x="0px" y="0px"
	 viewBox="0 0 20 20" style="enable-background:new 0 0 20 20;" xml:space="preserve">
<style type="text/css">
	.st0{fill:#272727;}
</style>
<path id="Vector_Smart_Object" transform="translate(-151.496 -150.531)" class="st0" d="M171.5,154.4c-0.7,0.3-1.5,0.5-2.4,0.6
	c0.9-0.5,1.5-1.3,1.8-2.2c-0.8,0.5-1.7,0.8-2.6,1c-0.8-0.8-1.9-1.3-3-1.3c-2.2,0-4.1,1.8-4.1,4c0,0.3,0,0.6,0.1,0.9
	c-3.3-0.2-6.4-1.7-8.5-4.2c-1.1,1.8-0.5,4.2,1.3,5.4c-0.7,0-1.3-0.2-1.9-0.5v0.1c0,1.9,1.4,3.6,3.3,4c-0.4,0.1-0.7,0.1-1.1,0.1
	c-0.3,0-0.5,0-0.8-0.1c0.6,1.7,2.1,2.8,3.8,2.8c-1.5,1.1-3.3,1.7-5.1,1.7c-0.3,0-0.7,0-1-0.1c1.9,1.2,4.1,1.8,6.3,1.8
	c6.4,0.1,11.6-5,11.7-11.3c0-0.1,0-0.1,0-0.2c0-0.2,0-0.4,0-0.5C170.3,155.9,170.9,155.2,171.5,154.4"/>
</svg>
